<?xml version="1.0" encoding="UTF-8"?>
<!DOCTYPE svg PUBLIC "-//W3C//DTD SVG 1.1//EN" "http://www.w3.org/Graphics/SVG/1.1/DTD/svg11.dtd">
<svg xmlns="http://www.w3.org/2000/svg" version="1.1" width="512px" height="512px" style="shape-rendering:geometricPrecision; text-rendering:geometricPrecision; image-rendering:optimizeQuality; fill-rule:evenodd; clip-rule:evenodd" xmlns:xlink="http://www.w3.org/1999/xlink">
<g><path style="opacity:0.997" fill="#f38020" d="M 394.5,241.5 C 390.343,252.484 386.177,263.484 382,274.5C 371.357,295.919 354.191,308.753 330.5,313C 267.498,313.5 204.498,314.167 141.5,315C 137.205,316.845 136.538,319.512 139.5,323C 202.486,324.641 265.486,325.641 328.5,326C 348.874,330.573 356.708,343.073 352,363.5C 351.064,368.634 349.231,373.301 346.5,377.5C 231.5,377.667 116.5,377.5 1.5,377C 0.955796,376.283 0.28913,375.783 -0.5,375.5C -0.5,367.167 -0.5,358.833 -0.5,350.5C 8.73266,310.775 33.7327,288.942 74.5,285C 69.4566,255.753 80.1233,234.42 106.5,221C 125.42,214.176 143.253,216.343 160,227.5C 178.613,180.226 213.113,153.06 263.5,146C 319.189,143.423 360.022,166.59 386,215.5C 389.739,223.883 392.572,232.549 394.5,241.5 Z"/></g>
<g><path style="opacity:0.999" fill="#fffcf9" d="M 394.5,241.5 C 397.899,243.199 401.232,244.866 404.5,246.5C 402.689,248.385 401.522,250.719 401,253.5C 397.709,263.663 395.209,273.996 393.5,284.5C 394.125,298.6 401.125,307.766 414.5,312C 429.798,313.542 445.131,314.542 460.5,315C 465.298,317.071 465.632,319.738 461.5,323C 443.811,324.217 426.144,325.55 408.5,327C 385.401,334.432 369.901,349.599 362,372.5C 361.36,374.265 361.527,375.932 362.5,377.5C 357.167,377.5 351.833,377.5 346.5,377.5C 349.231,373.301 351.064,368.634 352,363.5C 356.708,343.073 348.874,330.573 328.5,326C 265.486,325.641 202.486,324.641 139.5,323C 136.538,319.512 137.205,316.845 141.5,315C 204.498,314.167 267.498,313.5 330.5,313C 354.191,308.753 371.357,295.919 382,274.5C 386.177,263.484 390.343,252.484 394.5,241.5 Z"/></g>
<g><path style="opacity:0.998" fill="#faae41" d="M 511.5,333.5 C 511.5,342.833 511.5,352.167 511.5,361.5C 510.401,366.8 508.735,371.967 506.5,377C 458.501,377.5 410.501,377.667 362.5,377.5C 361.527,375.932 361.36,374.265 362,372.5C 369.901,349.599 385.401,334.432 408.5,327C 426.144,325.55 443.811,324.217 461.5,323C 465.632,319.738 465.298,317.071 460.5,315C 445.131,314.542 429.798,313.542 414.5,312C 401.125,307.766 394.125,298.6 393.5,284.5C 395.209,273.996 397.709,263.663 401,253.5C 401.522,250.719 402.689,248.385 404.5,246.5C 444.893,245.279 476.06,261.613 498,295.5C 504.823,307.477 509.323,320.144 511.5,333.5 Z"/></g>
</svg>
